<svg width="58" height="92" viewBox="0 0 58 92" fill="none" xmlns="http://www.w3.org/2000/svg">
<g clip-path="url(#clip0_5_10)">
<path d="M56.2963 27.061C58.5619 24.8149 58.5619 21.1672 56.2963 18.9211C54.0307 16.675 50.3513 16.675 48.0857 18.9211L29 37.8602L9.89629 18.9391C7.63067 16.693 3.95129 16.693 1.68567 18.9391C-0.579956 21.1852 -0.579956 24.8329 1.68567 27.079L20.7894 46L1.70379 64.9391C-0.561831 67.1852 -0.561831 70.8329 1.70379 73.079C3.96942 75.3251 7.64879 75.3251 9.91442 73.079L29 54.1399L48.1038 73.061C50.3694 75.3071 54.0488 75.3071 56.3144 73.061C58.58 70.8149 58.58 67.1672 56.3144 64.9211L37.2107 46L56.2963 27.061Z" fill="white"/>
</g>
<defs>
<clipPath id="clip0_5_10">
<rect width="58" height="92" fill="white"/>
</clipPath>
</defs>
</svg>
